<svg width="1270" height="286" viewBox="0 0 1270 286" fill="none" xmlns="http://www.w3.org/2000/svg">
<g filter="url(#filter0_di_200_734)">
<path d="M73.8811 270L5.38739 0.642618H57.7197L114.67 237.292H120.057L177.007 0.642618H229.339L160.845 270H73.8811ZM291.634 275.387C278.038 275.387 265.852 273.078 255.078 268.461C244.304 263.587 235.71 256.66 229.297 247.682C223.14 238.447 220.062 227.288 220.062 214.205C220.062 201.121 223.14 190.219 229.297 181.497C235.71 172.518 244.432 165.848 255.463 161.487C266.75 156.87 279.577 154.561 293.942 154.561H346.275V143.787C346.275 134.808 343.453 127.497 337.809 121.853C332.166 115.953 323.187 113.003 310.874 113.003C298.817 113.003 289.838 115.825 283.938 121.469C278.038 126.856 274.19 133.91 272.394 142.632L227.758 127.625C230.836 117.877 235.71 109.027 242.38 101.074C249.306 92.8655 258.413 86.3239 269.7 81.4498C281.244 76.3192 295.225 73.7539 311.643 73.7539C336.783 73.7539 356.664 80.0389 371.287 92.6089C385.909 105.179 393.22 123.393 393.22 147.25V218.437C393.22 226.133 396.811 229.981 403.994 229.981H419.386V270H387.063C377.572 270 369.747 267.691 363.591 263.074C357.434 258.456 354.355 252.299 354.355 244.603V244.219H347.044C346.018 247.297 343.709 251.402 340.118 256.532C336.527 261.406 330.883 265.767 323.187 269.615C315.491 273.463 304.973 275.387 291.634 275.387ZM300.099 236.138C313.695 236.138 324.726 232.418 333.192 224.979C341.914 217.283 346.275 207.15 346.275 194.58V190.732H297.406C288.427 190.732 281.372 192.656 276.242 196.504C271.111 200.352 268.546 205.739 268.546 212.665C268.546 219.592 271.24 225.235 276.627 229.596C282.014 233.957 289.838 236.138 300.099 236.138ZM435.596 270V79.1411H483.31V100.69H490.237C493.058 92.9937 497.676 87.35 504.089 83.7586C510.759 80.1672 518.455 78.3715 527.177 78.3715H550.265V121.469H526.408C514.094 121.469 503.961 124.804 496.009 131.473C488.056 137.887 484.08 147.891 484.08 161.487V270H435.596ZM568.921 270V0.642618H617.406V270H568.921ZM738.857 275.387C719.874 275.387 703.071 271.411 688.449 263.458C674.083 255.249 662.796 243.834 654.587 229.212C646.634 214.333 642.658 196.889 642.658 176.879V172.262C642.658 152.252 646.634 134.937 654.587 120.314C662.539 105.435 673.698 94.0198 688.064 86.0674C702.43 77.8584 719.104 73.7539 738.087 73.7539C756.814 73.7539 773.104 77.9867 786.957 86.4522C800.809 94.6612 811.584 106.205 819.279 121.084C826.975 135.706 830.823 152.765 830.823 172.262V188.808H691.912C692.425 201.891 697.299 212.537 706.534 220.746C715.769 228.955 727.057 233.06 740.396 233.06C753.992 233.06 763.997 230.109 770.41 224.209C776.824 218.309 781.698 211.768 785.033 204.585L824.667 225.364C821.075 232.033 815.816 239.345 808.89 247.297C802.22 254.993 793.242 261.663 781.954 267.306C770.667 272.694 756.301 275.387 738.857 275.387ZM692.297 152.637H781.569C780.543 141.606 776.054 132.756 768.102 126.086C760.406 119.416 750.273 116.082 737.703 116.082C724.62 116.082 714.23 119.416 706.534 126.086C698.838 132.756 694.092 141.606 692.297 152.637ZM708.843 57.5925L737.318 0.642618H791.959L751.171 57.5925H708.843ZM903.222 270L834.729 0.642618H887.061L944.011 237.292H949.398L1006.35 0.642618H1058.68L990.186 270H903.222ZM1163.41 275.387C1143.14 275.387 1125.18 271.796 1109.54 264.613C1093.89 257.43 1081.57 247.169 1072.6 233.829C1063.87 220.233 1059.51 204.2 1059.51 185.73V178.803H1108.77V184.19C1108.77 198.556 1113.77 210.1 1123.77 218.822C1133.78 227.288 1146.99 231.52 1163.41 231.52C1180.08 231.52 1192.91 227.544 1201.89 219.592C1211.12 211.639 1215.74 201.635 1215.74 189.578V185.73C1215.74 177.521 1213.69 170.851 1209.58 165.72C1205.48 160.59 1199.96 156.87 1193.04 154.561C1186.11 151.996 1178.29 150.713 1169.56 150.713H1115.69V96.8417L1202.66 50.6661V44.5094H1066.44V0.642618H1257.3V66.058L1176.11 109.155V115.312H1190.34C1202.4 115.312 1214.07 117.749 1225.36 122.623C1236.9 127.497 1246.4 135.065 1253.83 145.326C1261.27 155.331 1264.99 168.414 1264.99 184.575V189.193C1264.99 206.637 1260.76 221.9 1252.3 234.984C1243.83 247.81 1231.9 257.815 1216.51 264.998C1201.37 271.924 1183.67 275.387 1163.41 275.387Z" fill="url(#paint0_linear_200_734)"/>
</g>
<defs>
<filter id="filter0_di_200_734" x="0.387695" y="-4.35742" width="1269.61" height="289.745" filterUnits="userSpaceOnUse" color-interpolation-filters="sRGB">
<feFlood flood-opacity="0" result="BackgroundImageFix"/>
<feColorMatrix in="SourceAlpha" type="matrix" values="0 0 0 0 0 0 0 0 0 0 0 0 0 0 0 0 0 0 127 0" result="hardAlpha"/>
<feOffset dy="5"/>
<feGaussianBlur stdDeviation="2.5"/>
<feComposite in2="hardAlpha" operator="out"/>
<feColorMatrix type="matrix" values="0 0 0 0 0 0 0 0 0 0 0 0 0 0 0 0 0 0 1 0"/>
<feBlend mode="normal" in2="BackgroundImageFix" result="effect1_dropShadow_200_734"/>
<feBlend mode="normal" in="SourceGraphic" in2="effect1_dropShadow_200_734" result="shape"/>
<feColorMatrix in="SourceAlpha" type="matrix" values="0 0 0 0 0 0 0 0 0 0 0 0 0 0 0 0 0 0 127 0" result="hardAlpha"/>
<feOffset dy="-5"/>
<feGaussianBlur stdDeviation="2.5"/>
<feComposite in2="hardAlpha" operator="arithmetic" k2="-1" k3="1"/>
<feColorMatrix type="matrix" values="0 0 0 0 1 0 0 0 0 1 0 0 0 0 1 0 0 0 0.1 0"/>
<feBlend mode="normal" in2="shape" result="effect2_innerShadow_200_734"/>
</filter>
<linearGradient id="paint0_linear_200_734" x1="495.25" y1="315.75" x2="927.75" y2="-101.25" gradientUnits="userSpaceOnUse">
<stop stop-color="#171717"/>
<stop offset="1" stop-color="#333333"/>
</linearGradient>
</defs>
</svg>
