<svg width="60" height="60" viewBox="0 0 60 60" fill="none" xmlns="http://www.w3.org/2000/svg">
<circle cx="30" cy="30" r="30" fill="white"/>
<path d="M31.3851 13.6336C30.9508 13.4355 30.479 13.333 30.0017 13.333C29.5244 13.333 29.0527 13.4355 28.6184 13.6336L14.3351 20.1336C14.0393 20.264 13.7879 20.4776 13.6113 20.7484C13.4348 21.0191 13.3408 21.3354 13.3408 21.6586C13.3408 21.9818 13.4348 22.2981 13.6113 22.5688C13.7879 22.8396 14.0393 23.0532 14.3351 23.1836L28.6351 29.7003C29.0693 29.8984 29.5411 30.0009 30.0184 30.0009C30.4957 30.0009 30.9675 29.8984 31.4017 29.7003L45.7017 23.2003C45.9975 23.0699 46.2489 22.8563 46.4255 22.5855C46.602 22.3147 46.696 21.9985 46.696 21.6753C46.696 21.352 46.602 21.0358 46.4255 20.765C46.2489 20.4943 45.9975 20.2807 45.7017 20.1503L31.3851 13.6336Z" stroke="black" stroke-width="3.33333" stroke-linecap="round" stroke-linejoin="round"/>
<path d="M20.1328 25.833L14.2994 28.4997C14.0131 28.6343 13.771 28.8476 13.6014 29.1147C13.4319 29.3818 13.3418 29.6916 13.3418 30.008C13.3418 30.3244 13.4319 30.6342 13.6014 30.9013C13.771 31.1684 14.0131 31.3817 14.2994 31.5163L28.6328 38.033C29.0648 38.2286 29.5335 38.3298 30.0078 38.3298C30.482 38.3298 30.9508 38.2286 31.3828 38.033L45.6828 31.533C45.9785 31.4026 46.23 31.189 46.4065 30.9182C46.583 30.6475 46.677 30.3312 46.677 30.008C46.677 29.6848 46.583 29.3685 46.4065 29.0978C46.23 28.827 45.9785 28.6134 45.6828 28.483L39.8494 25.833" stroke="black" stroke-width="3.33333" stroke-linecap="round" stroke-linejoin="round"/>
<path d="M20.1328 34.167L14.2994 36.8337C14.0131 36.9683 13.771 37.1816 13.6014 37.4487C13.4319 37.7158 13.3418 38.0256 13.3418 38.342C13.3418 38.6584 13.4319 38.9682 13.6014 39.2353C13.771 39.5024 14.0131 39.7157 14.2994 39.8503L28.6328 46.367C29.0648 46.5626 29.5335 46.6638 30.0078 46.6638C30.482 46.6638 30.9508 46.5626 31.3828 46.367L45.6828 39.867C45.9785 39.7366 46.23 39.523 46.4065 39.2522C46.583 38.9815 46.677 38.6652 46.677 38.342C46.677 38.0188 46.583 37.7025 46.4065 37.4318C46.23 37.161 45.9785 36.9474 45.6828 36.817L39.8494 34.167" stroke="black" stroke-width="3.33333" stroke-linecap="round" stroke-linejoin="round"/>
</svg>
